<svg width="120" height="34" viewBox="0 0 120 34" fill="none" xmlns="http://www.w3.org/2000/svg">
<path d="M0 22V0.759999H1.08V22H0ZM2.16 22V0.759999H5.4V22H2.16ZM6.48 22V0.759999H7.56V22H6.48ZM10.8 22V0.759999H14.04V22H10.8ZM15.12 22V0.759999H16.2V22H15.12ZM6.372 32.692H8.028V25.924H6.48V25.132H10.62V25.924H8.964V32.692H10.692V33.484H6.372V32.692ZM17.2969 22V0.759999H20.5369V22H17.2969ZM21.6169 22V0.759999H24.8569V22H21.6169ZM25.9369 22V0.759999H27.0169V22H25.9369ZM28.0969 22V0.759999H29.1769V22H28.0969ZM32.4169 22V0.759999H33.4969V22H32.4169ZM23.1289 25.132H23.8849L25.9369 29.236L28.0249 25.132H28.7449V33.484H27.8449V27.184L26.0449 30.568H25.6849L23.9929 27.22V33.484H23.1289V25.132ZM34.5938 22V0.759999H37.8338V22H34.5938ZM38.9138 22V0.759999H39.9938V22H38.9138ZM41.0738 22V0.759999H42.1538V22H41.0738ZM45.3938 22V0.759999H46.4738V22H45.3938ZM47.5538 22V0.759999H50.7938V22H47.5538ZM44.5658 31.036H41.8658L41.0378 33.484H40.1018L43.1618 24.988H43.2698L46.3658 33.484H45.3938L44.5658 31.036ZM44.3138 30.316L43.2338 27.148L42.1178 30.316H44.3138ZM51.8906 22V0.759999H52.9706V22H51.8906ZM54.0506 22V0.759999H55.1306V22H54.0506ZM56.2106 22V0.759999H57.2906V22H56.2106ZM60.5306 22V0.759999H63.7706V22H60.5306ZM64.8506 22V0.759999H68.0906V22H64.8506ZM60.8906 33.628C60.2186 33.628 59.6426 33.448 59.1626 33.088C58.6826 32.752 58.3106 32.26 58.0466 31.612C57.7826 30.988 57.6506 30.256 57.6506 29.416C57.6506 28.312 57.8186 27.436 58.1546 26.788C58.4906 26.14 58.8986 25.684 59.3786 25.42C59.8586 25.18 60.3386 25.06 60.8186 25.06C61.3226 25.06 61.8026 25.192 62.2586 25.456C62.7386 25.696 63.0866 26.032 63.3026 26.464L62.6546 26.968L62.5466 27.076L62.5106 27.004C62.5106 26.932 62.4986 26.86 62.4746 26.788C62.4266 26.74 62.3546 26.656 62.2586 26.536C62.0426 26.296 61.8266 26.128 61.6106 26.032C61.3946 25.936 61.1306 25.888 60.8186 25.888C60.1706 25.888 59.6306 26.14 59.1986 26.644C58.7906 27.172 58.5866 28.024 58.5866 29.2C58.5866 30.352 58.7906 31.24 59.1986 31.864C59.6066 32.488 60.1706 32.8 60.8906 32.8C61.1546 32.8 61.4306 32.752 61.7186 32.656C62.0306 32.584 62.2826 32.464 62.4746 32.296V30.316H60.9626V29.488H63.3386V32.764C62.5466 33.34 61.7306 33.628 60.8906 33.628ZM69.1875 22V0.759999H70.2675V22H69.1875ZM71.3475 22V0.759999H74.5875V22H71.3475ZM75.6675 22V0.759999H76.7475V22H75.6675ZM79.9875 22V0.759999H83.2275V22H79.9875ZM84.3075 22V0.759999H85.3875V22H84.3075ZM75.5595 32.692H77.2155V25.924H75.6675V25.132H79.8075V25.924H78.1515V32.692H79.8795V33.484H75.5595V32.692ZM86.4844 22V0.759999H87.5644V22H86.4844ZM88.6444 22V0.759999H89.7244V22H88.6444ZM90.8044 22V0.759999H94.0444V22H90.8044ZM95.1244 22V0.759999H96.2044V22H95.1244ZM99.4444 22V0.759999H102.684V22H99.4444ZM92.4604 25.132H93.3604L96.8524 31.324V25.132H97.8964V25.24C97.8244 25.288 97.7884 25.348 97.7884 25.42C97.7644 25.468 97.7524 25.576 97.7524 25.744V33.484H97.0324L93.3244 26.932V33.484H92.4604V25.132ZM103.781 22V0.759999H107.021V22H103.781ZM108.101 22V0.759999H109.181V22H108.101ZM110.261 22V0.759999H113.501V22H110.261ZM116.741 22V0.759999H117.821V22H116.741ZM118.901 22V0.759999H119.981V22H118.901ZM109.865 25.132H114.977V25.96H110.729V28.696H114.257V29.56H110.729V32.656H114.941V33.484H109.865V25.132Z" fill="black"/>
</svg>
